<?xml version="1.0" standalone="no"?><!DOCTYPE svg PUBLIC "-//W3C//DTD SVG 1.1//EN" "http://www.w3.org/Graphics/SVG/1.1/DTD/svg11.dtd"><svg t="1684317303470" class="icon" viewBox="0 0 1193 1024" version="1.1" xmlns="http://www.w3.org/2000/svg" p-id="1808" xmlns:xlink="http://www.w3.org/1999/xlink" width="233.0078125" height="200"><path d="M536.997688 168.925881m36.486876 0l46.096015 0q36.486876 0 36.486876 36.486876l0 762.325037q0 36.486876-36.486876 36.486876l-46.096015 0q-36.486876 0-36.486876-36.486876l0-762.325037q0-36.486876 36.486876-36.486876Z" fill="#E1E7EA" p-id="1809"></path><path d="M619.580579 188.70121a16.711546 16.711546 0 0 1 16.711547 16.711547v762.325037a16.711546 16.711546 0 0 1-16.711547 16.711546h-46.096015a16.711546 16.711546 0 0 1-16.711546-16.711546V205.412757a16.711546 16.711546 0 0 1 16.711546-16.711547h46.096015m0-39.411396h-46.096015a55.705154 55.705154 0 0 0-55.705154 55.705154v762.742826a55.705154 55.705154 0 0 0 55.705154 55.705154h46.096015a55.705154 55.705154 0 0 0 55.705155-55.705154V205.412757a55.705154 55.705154 0 0 0-55.705155-55.705155z" p-id="1810"></path><path d="M258.332653 337.712498c-167.115463 0-238.557324-47.488644-238.557323-159.038215S91.077927 19.77533 258.332653 19.77533c192.322045 0 345.093431 139.262886 351.499524 144.415612a19.77533 19.77533 0 0 1 0 29.105944c-6.406093 5.849041-159.316741 144.415613-351.499524 144.415612z" fill="#FFFFFF" p-id="1811"></path><path d="M258.332653 39.411397c186.75153 0 338.26955 139.262886 338.26955 139.262886s-151.378757 139.262886-338.26955 139.262886-218.781994-62.389773-218.781993-139.262886 32.030464-139.262886 218.781993-139.262886m0-39.411397C79.658371 0 0 55.705154 0 178.674283s79.658371 178.813545 258.332653 178.813545c199.842241 0 358.323405-143.580035 364.868761-149.707602a39.411397 39.411397 0 0 0 0-58.072624C616.656059 143.580035 458.174895 0 258.332653 0z" p-id="1812"></path><path d="M543.125255 178.674283s-122.272814 112.385149-272.955256 112.385149-177.003128-50.273902-177.003128-112.385149 25.902897-112.385149 176.724602-112.385149S543.125255 178.674283 543.125255 178.674283z" fill="#F6C343" p-id="1813"></path><path d="M934.73249 337.712498c-192.322045 0-345.232694-139.262886-351.638787-144.415612a19.77533 19.77533 0 0 1 0-29.105944c6.406093-5.849041 159.316741-144.415613 351.638787-144.415612 167.115463 0 238.557324 47.488644 238.557324 159.038215s-71.302598 158.898953-238.557324 158.898953z" fill="#FFFFFF" p-id="1814"></path><path d="M934.73249 39.411397c186.75153 0 218.781994 62.389773 218.781994 139.262886s-32.030464 139.262886-218.781994 139.262886-338.26955-139.262886-338.26955-139.262886 151.378757-139.262886 338.26955-139.262886m0-39.411397c-199.842241 0-358.323405 143.580035-364.868761 149.707602a39.411397 39.411397 0 0 0 0 58.072624c6.684619 6.127567 165.02652 149.707602 364.868761 149.707602 178.674283 0 258.332653-55.705154 258.332653-178.674283S1113.406773 0 934.73249 0z" p-id="1815"></path><path d="M650.218414 178.674283s122.272814 112.385149 272.955257 112.385149S1100.176799 240.78553 1100.176799 178.674283s-26.181423-112.385149-177.003128-112.385149-272.955256 112.385149-272.955257 112.385149z" fill="#F6C343" p-id="1816"></path><path d="M596.46294 168.786618m-119.20903 0a119.20903 119.20903 0 1 0 238.418061 0 119.20903 119.20903 0 1 0-238.418061 0Z" fill="#EE7156" p-id="1817"></path><path d="M596.46294 69.631443a99.433701 99.433701 0 1 1-99.4337 99.4337A99.433701 99.433701 0 0 1 596.46294 69.631443m0-39.411397a139.262886 139.262886 0 1 0 139.262886 139.262886 139.262886 139.262886 0 0 0-139.262886-139.262886z" p-id="1818"></path></svg>